<?xml version="1.0" encoding="utf-8"?>
<!-- Generator: Adobe Illustrator 26.0.2, SVG Export Plug-In . SVG Version: 6.00 Build 0)  -->
<svg version="1.1" id="Layer_1" xmlns="http://www.w3.org/2000/svg" xmlns:xlink="http://www.w3.org/1999/xlink" x="0px" y="0px"
	 viewBox="0 0 100 100" style="enable-background:new 0 0 100 100;" xml:space="preserve">
<g>
	<path d="M47.37,17.86c-0.46,0.28-1.38,0.78-2.54,1.02c-1.3,0.27-2.44,0.17-3.44-0.46c-0.89-0.56-1.59-1.61-1.87-2.94
		c-0.52-2.56,0.84-4.8,3.72-5.4c0.99-0.21,1.81-0.15,2.22-0.05l-0.08,0.96c-0.5-0.11-1.11-0.15-1.97,0.03
		c-2.09,0.44-3.18,2.02-2.73,4.17c0.46,2.18,2.04,3.19,4.04,2.77c0.73-0.15,1.2-0.36,1.43-0.54l-0.54-2.56l-1.74,0.37l-0.19-0.89
		l2.83-0.59L47.37,17.86z"/>
	<path d="M48.45,9.1l1.14-0.04l0.35,9.22l-1.14,0.04L48.45,9.1z"/>
	<path d="M55.04,18.56l-0.01-0.8l-0.04,0c-0.4,0.46-1.11,0.83-2.01,0.74c-1.27-0.12-1.83-1.08-1.74-1.99
		c0.15-1.51,1.58-2.21,3.99-1.96l0.01-0.13c0.05-0.52,0-1.46-1.28-1.59c-0.58-0.06-1.21,0.06-1.68,0.31l-0.19-0.78
		c0.55-0.29,1.32-0.43,2.11-0.36c1.92,0.19,2.25,1.54,2.13,2.8l-0.23,2.34c-0.05,0.54-0.08,1.08-0.04,1.51L55.04,18.56z
		 M55.19,15.34c-1.24-0.15-2.67-0.07-2.79,1.15c-0.07,0.74,0.39,1.14,0.97,1.19c0.82,0.08,1.38-0.39,1.62-0.9
		c0.05-0.11,0.09-0.24,0.1-0.36L55.19,15.34z"/>
	<path d="M65.28,11.66l-2.24,7.27c-0.17,0.53-0.34,1.15-0.43,1.57l-0.98-0.3l0.27-1.06l-0.03-0.01c-0.54,0.57-1.43,0.85-2.41,0.55
		c-1.45-0.45-2.19-2.02-1.63-3.85c0.6-2,2.23-2.85,3.69-2.4c0.92,0.28,1.41,0.91,1.53,1.48l0.03,0.01l1.11-3.59L65.28,11.66z
		 M62.57,16.58c0.04-0.14,0.09-0.33,0.09-0.47c0.05-0.75-0.37-1.5-1.19-1.75c-1.13-0.35-2.11,0.44-2.52,1.77
		c-0.38,1.22-0.09,2.41,1.09,2.77c0.73,0.23,1.55-0.05,2-0.81c0.08-0.14,0.14-0.28,0.2-0.46L62.57,16.58z"/>
	<path d="M71.38,16.37l-2.25-1.44l0.52-0.81l5.47,3.49l-0.52,0.81l-2.26-1.44l-4.2,6.57l-0.96-0.62L71.38,16.37z"/>
	<path d="M76.44,26.31c-1.57,1.72-3.44,1.38-4.56,0.35c-1.26-1.15-1.38-2.96-0.04-4.42c1.42-1.55,3.27-1.53,4.55-0.36
		C77.73,23.1,77.74,24.9,76.44,26.31z M72.72,22.99c-0.93,1.02-1.05,2.32-0.22,3.07c0.8,0.74,2.1,0.53,3.06-0.51
		c0.72-0.79,1.24-2.14,0.24-3.05C74.8,21.59,73.53,22.11,72.72,22.99z"/>
	<path d="M83.49,36.06c1.05-0.63,2.31-1.39,3.28-1.9l-0.02-0.03c-1.05,0.22-2.18,0.41-3.46,0.59l-4.48,0.64l-0.4-0.76l3.02-3.21
		c0.89-0.95,1.73-1.79,2.53-2.5l-0.01-0.02c-0.98,0.49-2.3,1.12-3.5,1.67l-3.43,1.56l-0.51-0.95l8.02-3.58l0.68,1.27l-3.04,3.31
		c-0.78,0.83-1.49,1.55-2.19,2.17L80,34.35c0.88-0.22,1.88-0.4,3.04-0.57l4.47-0.62l0.68,1.27l-7.48,4.61l-0.52-0.98L83.49,36.06z"
		/>
	<path d="M83.91,40.24c-1.5,0.39-1.89,1.5-1.62,2.61c0.19,0.8,0.45,1.24,0.72,1.62l-0.75,0.38c-0.27-0.35-0.63-0.97-0.87-1.94
		c-0.45-1.88,0.52-3.3,2.36-3.75c1.84-0.44,3.56,0.29,3.99,2.08c0.48,2-1.15,2.95-2.27,3.22c-0.23,0.05-0.41,0.07-0.53,0.09
		L83.91,40.24z M85.49,43.31c0.71-0.16,1.74-0.72,1.44-1.98c-0.27-1.12-1.42-1.37-2.22-1.27L85.49,43.31z"/>
	<path d="M85.16,46.77c-1.54,0.1-2.14,1.11-2.09,2.25c0.04,0.82,0.2,1.31,0.4,1.73l-0.81,0.23c-0.2-0.39-0.44-1.07-0.48-2.07
		c-0.09-1.94,1.13-3.15,3.03-3.23c1.9-0.08,3.44,0.97,3.52,2.8c0.09,2.05-1.69,2.68-2.84,2.73c-0.23,0.01-0.42-0.01-0.53-0.02
		L85.16,46.77z M86.12,50.08c0.73-0.02,1.84-0.38,1.79-1.67c-0.05-1.16-1.14-1.61-1.93-1.67L86.12,50.08z"/>
	<path d="M90.14,54.74l-1.79-0.21l-0.19,1.63l-0.87-0.1l0.19-1.63l-3.37-0.39c-0.77-0.09-1.24,0.08-1.31,0.71
		c-0.03,0.3-0.02,0.52,0,0.67l-0.86-0.05c-0.07-0.23-0.09-0.59-0.04-1.03c0.06-0.53,0.28-0.94,0.62-1.17
		c0.37-0.28,0.94-0.34,1.68-0.25l3.41,0.39l0.11-0.97l0.87,0.1l-0.11,0.97l1.5,0.17L90.14,54.74z"/>
	<path d="M80.66,60.18l3.5,1.26l5.68-0.9l-0.44,1.21l-2.69,0.35c-0.74,0.09-1.33,0.16-2,0.21l-0.01,0.02
		c0.46,0.43,0.89,0.9,1.4,1.44l1.85,2l-0.44,1.21l-3.74-4.47l-3.51-1.26L80.66,60.18z"/>
	<path d="M79.29,70.16c-2.01-1.17-2.08-3.07-1.32-4.38c0.85-1.47,2.59-1.98,4.31-0.99c1.82,1.05,2.2,2.87,1.33,4.37
		C82.7,70.72,80.96,71.12,79.29,70.16z M81.74,65.8c-1.19-0.69-2.49-0.53-3.05,0.44c-0.55,0.95-0.07,2.17,1.16,2.88
		c0.92,0.53,2.36,0.75,3.04-0.42C83.56,67.54,82.77,66.4,81.74,65.8z"/>
	<path d="M73.62,74.39c-0.48-0.44-0.91-0.81-1.31-1.11L73,72.53l0.8,0.64l0.02-0.02c-0.17-0.56-0.22-1.5,0.53-2.33
		c0.66-0.73,1.86-1.24,3.5,0.24l2.72,2.47l-0.77,0.85l-2.58-2.34c-0.89-0.8-1.73-1.07-2.42-0.3c-0.51,0.57-0.48,1.32-0.24,1.81
		c0.08,0.16,0.21,0.33,0.36,0.47l2.86,2.59l-0.77,0.85L73.62,74.39z"/>
	<path d="M63.7,79.53c0.35-0.41,1.06-1.17,2.09-1.76c1.15-0.66,2.26-0.92,3.41-0.64c1.02,0.25,2.01,1.03,2.69,2.21
		c1.3,2.27,0.7,4.82-1.84,6.29c-0.88,0.51-1.67,0.71-2.09,0.75l-0.23-0.93c0.51-0.05,1.1-0.2,1.87-0.64
		c1.84-1.07,2.38-2.91,1.28-4.81c-1.11-1.92-2.93-2.39-4.7-1.37c-0.64,0.37-1.03,0.72-1.19,0.96l1.31,2.26l1.54-0.89l0.46,0.79
		l-2.5,1.45L63.7,79.53z"/>
	<path d="M65.41,88.2l-1.07,0.4l-3.22-8.66l1.07-0.4L65.41,88.2z"/>
	<path d="M56.21,81.26l0.26,0.75L56.51,82c0.24-0.56,0.8-1.14,1.68-1.33c1.24-0.28,2.07,0.46,2.27,1.35
		c0.33,1.49-0.81,2.59-3.19,3.1l0.03,0.13c0.11,0.51,0.45,1.39,1.71,1.11c0.57-0.13,1.13-0.44,1.5-0.81l0.42,0.68
		c-0.43,0.44-1.12,0.82-1.9,0.99c-1.88,0.42-2.62-0.77-2.89-2l-0.51-2.3c-0.12-0.53-0.26-1.05-0.43-1.45L56.21,81.26z M57.07,84.36
		c1.22-0.24,2.56-0.77,2.3-1.96c-0.16-0.72-0.72-0.96-1.29-0.83c-0.8,0.18-1.2,0.8-1.26,1.36c-0.01,0.12-0.01,0.25,0.02,0.37
		L57.07,84.36z"/>
	<path d="M48.58,90.99l-0.12-7.61c-0.01-0.56-0.03-1.2-0.08-1.62l1.03-0.02l0.07,1.09h0.03c0.34-0.71,1.1-1.25,2.12-1.27
		c1.52-0.02,2.71,1.24,2.74,3.15c0.05,2.09-1.23,3.4-2.77,3.43c-0.96,0.02-1.62-0.43-1.91-0.93l-0.03,0l0.06,3.76L48.58,90.99z
		 M49.63,85.47c0,0.14,0.02,0.34,0.06,0.48c0.18,0.72,0.81,1.31,1.67,1.3c1.18-0.02,1.87-1.07,1.85-2.46
		c-0.02-1.27-0.66-2.32-1.9-2.3c-0.77,0.01-1.46,0.53-1.65,1.39c-0.04,0.16-0.05,0.31-0.04,0.5L49.63,85.47z"/>
	<path d="M41.35,88.43l2.58,0.66l-0.24,0.93l-6.28-1.61l0.24-0.93l2.59,0.66l1.93-7.55l1.11,0.28L41.35,88.43z"/>
	<path d="M33.43,80.57c0.96-2.12,2.84-2.38,4.23-1.75c1.55,0.7,2.23,2.38,1.41,4.19c-0.87,1.92-2.63,2.48-4.22,1.76
		C33.21,84.02,32.64,82.32,33.43,80.57z M38.01,82.57c0.57-1.26,0.27-2.53-0.74-2.99c-0.99-0.45-2.16,0.15-2.75,1.44
		c-0.44,0.97-0.51,2.42,0.72,2.98S37.51,83.65,38.01,82.57z"/>
	<path d="M23.71,73.49c-0.8,0.93-1.76,2.04-2.53,2.82l0.03,0.03c0.93-0.53,1.95-1.07,3.1-1.64l4.06-2L29,73.3l-1.87,3.99
		c-0.56,1.18-1.08,2.24-1.63,3.16l0.02,0.02c0.77-0.77,1.84-1.79,2.8-2.68l2.77-2.55l0.78,0.75l-6.51,5.9l-1.04-1l1.86-4.09
		c0.48-1.03,0.94-1.93,1.41-2.74l-0.03-0.03c-0.77,0.49-1.66,0.96-2.71,1.49l-4.06,1.98l-1.04-1l5.67-6.7l0.8,0.76L23.71,73.49z"/>
	<path d="M22.01,69.66c1.3-0.84,1.32-2.01,0.72-2.98c-0.43-0.7-0.81-1.04-1.19-1.31l0.59-0.6c0.37,0.25,0.91,0.72,1.43,1.57
		c1.02,1.65,0.55,3.3-1.06,4.3c-1.61,1-3.47,0.84-4.44-0.72c-1.08-1.75,0.17-3.16,1.15-3.77c0.2-0.12,0.37-0.2,0.47-0.25
		L22.01,69.66z M19.54,67.24c-0.63,0.37-1.42,1.23-0.74,2.33c0.61,0.98,1.78,0.85,2.5,0.51L19.54,67.24z"/>
	<path d="M15.21,54.77c-1.18,0.33-2.59,0.73-3.66,0.96l0.01,0.04c1.07,0.07,2.21,0.18,3.49,0.35l4.49,0.58l0.19,0.84l-3.76,2.3
		c-1.11,0.68-2.14,1.27-3.1,1.74l0.01,0.03c1.07-0.21,2.52-0.47,3.82-0.69l3.72-0.6l0.24,1.05l-8.68,1.33l-0.32-1.41l3.81-2.39
		c0.97-0.59,1.85-1.09,2.68-1.51l-0.01-0.04c-0.91-0.02-1.92-0.12-3.08-0.25l-4.48-0.59l-0.32-1.41l8.43-2.46l0.24,1.08L15.21,54.77
		z"/>
	<path d="M15.91,50.64c1.55,0.02,2.21-0.95,2.25-2.09c0.02-0.82-0.1-1.32-0.27-1.75l0.82-0.17c0.17,0.41,0.36,1.1,0.33,2.1
		c-0.06,1.94-1.36,3.06-3.26,3c-1.9-0.06-3.36-1.22-3.31-3.05c0.06-2.05,1.88-2.55,3.04-2.51c0.23,0.01,0.42,0.04,0.53,0.05
		L15.91,50.64z M15.19,47.26c-0.73-0.03-1.87,0.24-1.91,1.53c-0.03,1.16,1.02,1.7,1.81,1.81L15.19,47.26z"/>
	<path d="M16.42,44.02c1.51,0.31,2.35-0.51,2.6-1.63c0.18-0.8,0.15-1.31,0.06-1.77l0.84-0.01c0.09,0.43,0.14,1.15-0.08,2.13
		c-0.42,1.89-1.92,2.74-3.77,2.33c-1.85-0.41-3.07-1.83-2.67-3.62c0.45-2,2.33-2.14,3.46-1.89c0.23,0.05,0.4,0.12,0.51,0.15
		L16.42,44.02z M16.35,40.57c-0.71-0.17-1.88-0.11-2.16,1.14c-0.25,1.13,0.68,1.86,1.43,2.12L16.35,40.57z"/>
	<path d="M13.7,35.01l1.68,0.67l0.61-1.52l0.81,0.32l-0.61,1.52l3.15,1.26c0.72,0.29,1.22,0.25,1.45-0.34
		c0.11-0.28,0.16-0.5,0.17-0.64l0.82,0.27c0,0.24-0.07,0.59-0.23,1c-0.2,0.49-0.51,0.83-0.91,0.97c-0.44,0.18-1,0.08-1.69-0.2
		l-3.19-1.28l-0.36,0.91l-0.81-0.32l0.36-0.9l-1.4-0.56L13.7,35.01z"/>
	<path d="M24.3,32.25l-3.04-2.14l-5.72-0.64l0.74-1.05l2.69,0.38c0.74,0.1,1.32,0.2,1.98,0.33l0.02-0.02
		c-0.33-0.53-0.62-1.1-0.97-1.76l-1.25-2.42l0.74-1.05l2.43,5.3l3.05,2.15L24.3,32.25z"/>
	<path d="M28.25,23c1.64,1.66,1.2,3.51,0.12,4.58c-1.21,1.2-3.02,1.23-4.42-0.18c-1.48-1.5-1.37-3.35-0.13-4.57
		C25.1,21.55,26.89,21.63,28.25,23z M24.74,26.55c0.97,0.98,2.26,1.16,3.06,0.38c0.78-0.77,0.64-2.07-0.36-3.08
		c-0.75-0.76-2.08-1.35-3.04-0.4C23.44,24.4,23.9,25.7,24.74,26.55z"/>
	<path d="M34.82,20.4c0.35,0.55,0.67,1.02,0.97,1.42l-0.85,0.55l-0.61-0.83l-0.02,0.01c0.02,0.59-0.18,1.5-1.12,2.11
		c-0.83,0.53-2.12,0.71-3.31-1.15l-1.98-3.1l0.96-0.62l1.88,2.94c0.64,1.01,1.39,1.49,2.26,0.93c0.65-0.41,0.81-1.15,0.71-1.69
		c-0.04-0.18-0.12-0.37-0.23-0.55l-2.08-3.25l0.96-0.62L34.82,20.4z"/>
</g>
</svg>
