<?xml version="1.0" encoding="utf-8"?>
<!-- Generator: Adobe Illustrator 25.0.1, SVG Export Plug-In . SVG Version: 6.00 Build 0)  -->
<svg version="1.1" id="Layer_1" xmlns="http://www.w3.org/2000/svg" xmlns:xlink="http://www.w3.org/1999/xlink" x="0px" y="0px"
	 viewBox="0 0 773.4 261.4" style="enable-background:new 0 0 773.4 261.4;" xml:space="preserve">
<g>
	<g>
		<path d="M290.6,59.3c-42,0-76.1,35.8-76.1,80c0,44.2,34.1,80,76.1,80s76.1-35.8,76.1-80C366.7,95.1,332.6,59.3,290.6,59.3z
			 M290.6,211.6c-32.1,0-58.2-32.4-58.2-72.3c0-39.9,26.1-72.3,58.2-72.3c32.1,0,58.2,32.4,58.2,72.3
			C348.8,179.2,322.8,211.6,290.6,211.6z"/>
		<path d="M408.2,216c-2.8,0-5.8,0-8.7,0c-6.4,0-13,0-19,0c-3.2,0-6.3,0-9.1,0c5-0.1,9.1-9.4,9.1-20.8V85.3
			c0-10.8-3.6-19.7-8.3-20.7c2.6,0,5.4,0,8.3,0c6,0,12.6,0,19,0c2.9,0,5.7,0,8.5,0c-4.7,0.9-8.5,9.8-8.5,20.8v109.9
			C399.5,206.3,403.4,215.3,408.2,216z"/>
		<g>
			<path d="M545.5,179.5c0.6,3.7,0.9,7.5,0.9,11.5c0,4.2-0.3,8.2-1,12.1c-14.9,10.3-33.8,16.1-52.8,16.3c-0.4,0-0.8,0-1.2,0
				c-42,0-77.2-35.5-77.2-79.7c0-44.2,35.2-80.3,77.2-80.3c0.4,0,0.8,0,1.2,0c18.8,0.2,37.6,5.9,52.5,16.1c0.1,0.1,0.2,0.1,0.3,0.2
				c0.7,3.9,1,7.9,1,12.1c0,3.6-0.3,7-0.7,10.4c-0.1,0.8-0.2,1.5-0.4,2.3C536.5,77.9,515.7,67,491.5,67c-0.6,0-1.3,0-1.9,0
				c-31.3,1.2-56.3,33.1-56.3,72.2c0,39.1,25,71,56.3,72.2c0.6,0,1.2,0,1.9,0C515.8,211.6,536.8,201.6,545.5,179.5z"/>
		</g>
		<path d="M208.1,242.1h-37.5c5.1,0,9.2-9.3,9.2-20.8v-71.4c0-6-2-11.9-5.7-16.6l-3.6-4.7L89.3,22.7c-0.2-0.3-0.5-0.6-0.7-0.9
			c-2.2-2.7-4.6-5.1-7.4-7.1c-0.8-0.6-1.9,0-1.9,0.9v205.6c0,11.5,4.1,20.8,9.2,20.8H51.1c5.1,0,9.2-9.3,9.2-20.8V15.8
			c0-3.7-1.6-6.6-3.5-6.7c0,0,0.4,0,0.4,0c-0.1,0-0.5,0-0.6,0c-0.5,0-0.7,0-0.7,0c-1.9,0.1-3,0.2-4.8,0.4C15.1,14,9.8,47.8,9.8,47.8
			c-2,14.1,3.9,23.8,9.6,29.6c3.7,3.8,8.5,6.6,13.7,8c2.1,0.5,4.7,1.3,7.5,2.5c6.9,2.7,7.5,7.3,5.8,12c-1.7,4.7-6.3,7.1-15,3.7
			C22.6,100.1,1,89.1,0,59.4C-0.9,32,18.2,4.6,51.1,0.5C53.9,0.2,56.8,0,59.8,0c0,0,0.2,0,0.6,0c1.2,0,4.2,0.1,7.9,0.6
			c3.9,0.5,7.6,1.6,11.1,3.2c3.3,1.5,6.4,3.4,9.2,5.7c2.5,2.1,4.9,4.4,6.9,7.1l75.1,97.7l7.3,9.5c0,0,0,0,0,0c0,0,0.1,0.1,0.1,0.1
			c0,0,0,0,0,0l0,0c0.6,0.8,1.8,0.4,1.8-0.6V22.6c0-11.5-4.1-20.8-9.2-20.8h37.5c-5.1,0-9.2,9.3-9.2,20.8v198.6
			C198.9,232.7,203,242.1,208.1,242.1z"/>
		<path d="M665.1,85.5"/>
		<path d="M646,69.8c0,0,18-0.2,19.1,14.9c0,0.1,0.1,0.3,0.3,0.3c0.1,0,0.3-0.1,0.3-0.3c0,0,0-18.4,0-18.4c-1.6-1.7-3.2-3.3-4.7-4.7
			c-16.3,0-40.7,0.1-62.6,0.1c-3.1,0-6.2,0-9.2,0c-6.7,0-13,0-18.5,0c-5.2,0-9.7,0-13.3,0v0.2c4,0,7.5,3.1,10,8c2,4,3.2,9.2,3.4,15
			c0,0.3,0,0.7,0,1c0,0.3,0,0.7,0,1V198c0,9.9-3.9,10.6-5,10.8c-0.8,0.2-4,0.7-6.2,3.2c-0.7,0.7-1.2,1.6-1.6,2.7
			c-0.1,0.4-0.3,0.8-0.3,1.2c-0.1,0.4-0.1,0.7-0.1,1.1c0,0.3,0,0.7,0.1,1c0,0.3,0.1,0.6,0.2,0.9c0.1,0.3,0.2,0.5,0.3,0.8
			c0.1,0.1,0.1,0.2,0.2,0.4c0.1,0.1,0.1,0.2,0.2,0.3c0.2,0.3,0.6,0.3,0.9,0.2c0.3-0.1,0.5-0.4,0.8-0.6c0.2-0.2,0.4-0.4,0.7-0.5
			c0.2-0.2,0.5-0.4,0.7-0.5c0.2-0.2,0.5-0.3,0.7-0.5c0.3-0.2,0.5-0.3,0.8-0.5c0.3-0.2,0.6-0.3,0.8-0.5c0.3-0.2,0.6-0.3,0.9-0.4
			c0.3-0.1,0.6-0.3,0.9-0.4c0.3-0.1,0.7-0.3,1-0.4c0.3-0.1,0.7-0.2,1-0.3c0.4-0.1,0.7-0.2,1.1-0.3c0.4-0.1,0.8-0.2,1.2-0.3
			c0.3-0.1,0.6-0.1,0.9-0.2c3.3-0.6,7.2-0.7,11.8,0c2.4,0.3,4.6,0.7,6.7,1.1c3.4,0.6,6.5,1.3,9.2,2.1c12.6,3.4,19.4,8.1,27.4,14.5
			c7.3,5.9,19.8,16.1,39.4,22.7c0.2,0.1,0.3,0.1,0.5,0.2c9.2,3,20,6,32.5,5.7c43.5-0.9,58.7-20.1,68.4-35.9
			c11.6-18.8,13.4-73.1-35.2-83.1c-47.6-9.8-70.5,30.8-63.1,58.1c0,0,3.5,12.9,11.6,10.5c8.1-2.3,8-9.9,6.1-14.5
			c-1.9-4.6-4.5-6.1-3-16.5c1.4-10.5,10.2-30.2,31.6-31.1c21.4-0.9,34.9,12.6,40.6,28.1c8.2,22.1-0.5,58-25.9,71.6
			c-23.1,12.3-47.4,5.7-63.6-1.1c-0.2-0.1-0.3-0.1-0.5-0.2c-3.4-1.4-6.5-3-9.3-4.5c-10.6-5.9-28.3-24.3-53.9-31.3
			c-1.2-0.3-2.4-0.6-3.6-0.9v0c-1.4-0.3-2.9-0.7-4.1-1c-1.9-0.5-3.4-2-3.9-3.9c-1.1-4.6-1.1-12.4-1.3-16.3v-64.7
			c0-1.2,0.6-2.3,1.6-3c0.7-0.4,1.6-0.7,2.7-0.9c1.6-0.2,3.2-0.1,4.8,0.2c5.2,1,10.9,4,18.3,5.8c9.8,2.5,18.1,1.6,29.5-1.2
			c5.5-1.3,7.8-3,8.7-4.3c0.7-1.1,0.4-2.5-0.6-3.3c-1.3-1.1-4.4-2.6-9.6-0.4c-7.5,3-14,3.7-24.1,1.9c-9-1.6-15.2-5.7-22.1-6.6
			c-0.9-0.1-1.9-0.2-2.8-0.2c-2.3,0-3.9-0.1-5-0.3c-0.8-0.2-1.4-0.9-1.4-1.8l0-36.3c0-2.5,2.1-4.6,4.6-4.6c1.5,0,3.1,0,4.6,0
			C614.3,69.8,631.5,69.8,646,69.8"/>
	</g>
	<g>
		<path d="M745.9,50.6c-15.1,0-27.4,12.9-27.4,28.7c0,15.9,12.3,28.8,27.4,28.8c15.1,0,27.4-12.9,27.4-28.8
			C773.3,63.4,761,50.6,745.9,50.6z M745.9,105.4c-11.7,0-21.2-11.7-21.2-26c0-14.4,9.5-26,21.2-26c11.7,0,21.2,11.7,21.2,26
			C767,93.7,757.6,105.4,745.9,105.4z"/>
		<path d="M751,93.8h8.1c-1.7-0.8-2.6-2.1-3.1-3L751.3,80l-0.6-1.4c0.1-0.1,0.3-0.1,0.4-0.2c1.9-1.1,3.6-3,3.6-6.2
			c0-3.1-1.6-4.9-3.5-5.9c-1.9-1-4-1.3-5-1.4c-0.1,0-0.2,0-0.3,0h-9.7c0.5,0.4,0.9,0.8,1.2,1.4c0.2,0.5,0.4,1,0.4,1.6V90
			c0,1.6-0.6,3-1.6,3.8h6.8v0c-1-0.8-1.6-2.2-1.6-3.8V80h4.5c0.3,0,0.7,0,1-0.1c0.2,0,0.4-0.1,0.6-0.1l0.1,0.2l4.8,11.1c0,0,0,0,0,0
			C752.6,92.7,751.8,93.4,751,93.8z M745.5,78.4c0,0-0.1,0-0.1,0h0c-0.8,0.1-1.6,0.1-2.5,0.1c-0.5,0-1.1,0-1.6-0.1v-5.5v-1.4v-5.2
			l2.8,0c0.1,0,0.7,0,0.8,0c1.8,0.2,3.6,0.5,4.7,1.4c2.3,1.8,2.3,6.1,0.5,8.4C749,77.6,747.3,78.2,745.5,78.4z"/>
	</g>
</g>
</svg>
